<svg xmlns="http://www.w3.org/2000/svg" viewBox="0 0 181 48" width="181" height="48" role="img" aria-label="Relics">

  <defs>
    <linearGradient id="au" x1="0" y1="0" x2="0" y2="1">
      <stop offset="0" stop-color="#9fe8cd"/>
      <stop offset="0.55" stop-color="#4fc3a1"/>
      <stop offset="1" stop-color="#2c7f68"/>
    </linearGradient>
    <linearGradient id="gem" x1="0" y1="0" x2="0" y2="1">
      <stop offset="0" stop-color="#e9f4ee"/>
      <stop offset="1" stop-color="#b9cfc7"/>
    </linearGradient>
  </defs>
<g transform="translate(0 -6) scale(0.82)">

    <path d="M22 11.5 C11.5 13.5 10 24.5 17.5 28.5" fill="none" stroke="url(#au)" stroke-width="2.9" stroke-linecap="round"/>
    <path d="M42 11.5 C52.5 13.5 54 24.5 46.5 28.5" fill="none" stroke="url(#au)" stroke-width="2.9" stroke-linecap="round"/>
    <path d="M22.5 5
    L41.5 5
    Q43 5 43 6.5
    L43 8.5
    Q43 10 41.5 10
    L37.8 10
    C37.8 13 38.4 15.4 41 17.2
    C47 21.2 50 25.5 50 30.5
    C50 39.5 43 45 38 46.8
    L37.6 50
    L40.5 51.5
    Q42.5 52.5 42.5 54.5
    L42.5 55.5
    Q42.5 57.5 40.5 57.5
    L23.5 57.5
    Q21.5 57.5 21.5 55.5
    L21.5 54.5
    Q21.5 52.5 23.5 51.5
    L26.4 50
    L26 46.8
    C21 45 14 39.5 14 30.5
    C14 25.5 17 21.2 23 17.2
    C25.6 15.4 26.2 13 26.2 10
    L22.5 10
    Q21 10 21 8.5
    L21 6.5
    Q21 5 22.5 5
    Z
    M32 21.5 L40.5 30.5 L32 39.5 L23.5 30.5 Z" fill="url(#au)" fill-rule="evenodd"/>
    <path d="M32 23.5 L38.5 30.5 L32 37.5 L25.5 30.5 Z" fill="url(#gem)"/>
    <path d="M32 26.5 L35.7 30.5 L32 34.5 L28.3 30.5 Z" fill="none" stroke="#1d5a4a" stroke-width="0.8" opacity="0.9"/>
    <path d="M32 23.5 L32 26.5 M38.5 30.5 L35.7 30.5 M32 37.5 L32 34.5 M25.5 30.5 L28.3 30.5" stroke="#1d5a4a" stroke-width="0.8" opacity="0.9"/>
</g>
<g transform="translate(52 36)">
  <path d="M6.43-23.80L6.43-23.80L11.22-23.80Q12.75-23.80 13.99-23.36Q15.23-22.92 16.08-22.08Q16.93-21.25 17.39-20.08Q17.85-18.90 17.85-17.41L17.85-17.41Q17.85-15.78 17.09-14.28Q16.32-12.78 15.01-11.85Q13.70-10.91 12.07-10.91L12.07-10.91Q12.65-10.68 13.33-9.95Q14.01-9.21 14.52-8.53L14.52-8.53Q14.52-8.53 14.98-7.87Q15.44-7.21 16.13-6.26Q16.83-5.30 17.54-4.39Q18.26-3.47 18.77-2.92L18.77-2.92Q19.45-2.18 20.13-1.60Q20.81-1.02 21.61-0.68Q22.41-0.34 23.39-0.34L23.39-0.34L23.39 0L21.52 0Q19.96 0 18.82-0.48Q17.68-0.95 16.90-1.65Q16.12-2.35 15.57-2.99L15.57-2.99Q15.47-3.13 15.01-3.77Q14.55-4.42 13.92-5.32Q13.29-6.22 12.68-7.11Q12.07-7.99 11.63-8.62Q11.19-9.25 11.12-9.35L11.12-9.35Q10.47-10.20 9.69-10.91Q8.91-11.63 7.99-11.63L7.99-11.63L7.99-11.97Q7.99-11.97 8.52-11.95Q9.04-11.93 9.79-11.97L9.79-11.97Q10.68-12.00 11.73-12.24Q12.78-12.48 13.70-13.23Q14.62-13.97 15.10-15.50L15.10-15.50Q15.20-15.88 15.27-16.44Q15.33-17 15.30-17.54L15.30-17.54Q15.27-19.86 14.13-21.23Q12.99-22.61 11.08-22.71L11.08-22.71Q10.13-22.78 9.13-22.76Q8.13-22.75 7.45-22.75Q6.77-22.75 6.77-22.75L6.77-22.75Q6.77-22.78 6.68-23.04Q6.60-23.29 6.51-23.55Q6.43-23.80 6.43-23.80ZM4.66-23.80L6.87-23.80L6.87 0L4.66 0L4.66-23.80ZM4.66-2.48L4.76-2.48L4.76 0L2.04 0L2.04-0.34Q2.04-0.34 2.26-0.34Q2.48-0.34 2.48-0.34L2.48-0.34Q3.37-0.34 4.00-0.97Q4.62-1.60 4.66-2.48L4.66-2.48ZM4.76-23.80L4.76-21.32L4.66-21.32Q4.62-22.20 4.00-22.83Q3.37-23.46 2.48-23.46L2.48-23.46Q2.48-23.46 2.26-23.46Q2.04-23.46 2.04-23.46L2.04-23.46L2.04-23.80L4.76-23.80ZM6.77 0L6.77-2.48L6.87-2.48Q6.87-1.60 7.51-0.97Q8.16-0.34 9.04-0.34L9.04-0.34Q9.04-0.34 9.25-0.34Q9.45-0.34 9.45-0.34L9.45-0.34L9.45 0L6.77 0ZM28.70-23.80L30.91-23.80L30.91 0L28.70 0L28.70-23.80ZM30.80-1.05L40.09-1.05L40.09 0L30.80 0L30.80-1.05ZM30.80-12.24L38.62-12.24L38.62-11.22L30.80-11.22L30.80-12.24ZM30.80-23.80L40.09-23.80L40.09-22.75L30.80-22.75L30.80-23.80ZM41.82-5.51L42.16-5.51L40.19 0L34.54 0L35.77-1.05Q37.57-1.05 38.71-1.62Q39.85-2.18 40.56-3.20Q41.28-4.22 41.82-5.51L41.82-5.51ZM36.65-11.29L38.62-11.29L38.62-9.04L38.28-9.04L38.28-9.55Q38.28-10.23 37.81-10.73Q37.33-11.22 36.65-11.22L36.65-11.22L36.65-11.29ZM38.28-14.42L38.62-14.42L38.62-12.17L36.65-12.17L36.65-12.24Q37.33-12.27 37.81-12.77Q38.28-13.26 38.28-13.94L38.28-13.94L38.28-14.42ZM37.74-22.85L40.09-22.85L40.09-20.13L39.75-20.13L39.75-20.74Q39.75-21.56 39.17-22.15Q38.59-22.75 37.74-22.78L37.74-22.78L37.74-22.85ZM40.09-24.41L40.09-24.41L40.09-23.43L35.94-23.80Q36.69-23.80 37.52-23.90Q38.35-24.00 39.07-24.14Q39.78-24.28 40.09-24.41ZM28.70-2.48L28.80-2.48L28.80 0L26.08 0L26.08-0.34Q26.08-0.34 26.30-0.34Q26.52-0.34 26.52-0.34L26.52-0.34Q27.40-0.34 28.03-0.97Q28.66-1.60 28.70-2.48L28.70-2.48ZM28.80-23.80L28.80-21.32L28.70-21.32Q28.70-22.20 28.05-22.83Q27.40-23.46 26.52-23.46L26.52-23.46Q26.52-23.46 26.32-23.46Q26.11-23.46 26.11-23.46L26.11-23.46L26.08-23.80L28.80-23.80ZM50.01-23.80L52.22-23.80L52.22 0L50.01 0L50.01-23.80ZM52.12-1.05L61.40-1.05L61.40 0L52.12 0L52.12-1.05ZM63.14-5.51L63.48-5.51L61.51 0L55.86 0L57.09-1.05Q58.89-1.05 60.03-1.62Q61.17-2.18 61.88-3.20Q62.59-4.22 63.14-5.51L63.14-5.51ZM50.01-2.48L50.12-2.48L50.12 0L47.40 0L47.40-0.34Q47.40-0.34 47.62-0.34Q47.84-0.34 47.84-0.34L47.84-0.34Q48.72-0.34 49.35-0.97Q49.98-1.60 50.01-2.48L50.01-2.48ZM50.12-23.80L50.12-21.32L50.01-21.32Q49.98-22.20 49.35-22.83Q48.72-23.46 47.84-23.46L47.84-23.46Q47.84-23.46 47.62-23.46Q47.40-23.46 47.40-23.46L47.40-23.46L47.40-23.80L50.12-23.80ZM52.22-21.32L52.12-21.32L52.12-23.80L54.84-23.80L54.84-23.46Q54.81-23.46 54.60-23.46Q54.40-23.46 54.40-23.46L54.40-23.46Q53.52-23.46 52.89-22.83Q52.26-22.20 52.22-21.32L52.22-21.32ZM70.65-23.80L72.86-23.80L72.86 0L70.65 0L70.65-23.80ZM70.65-2.48L70.75-2.48L70.75 0L68.03 0L68.03-0.34Q68.03-0.34 68.25-0.34Q68.48-0.34 68.48-0.34L68.48-0.34Q69.36-0.34 69.99-0.97Q70.62-1.60 70.65-2.48L70.65-2.48ZM70.75-23.80L70.75-21.32L70.65-21.32Q70.62-22.20 69.99-22.83Q69.36-23.46 68.48-23.46L68.48-23.46Q68.48-23.46 68.25-23.46Q68.03-23.46 68.03-23.46L68.03-23.46L68.03-23.80L70.75-23.80ZM72.76 0L72.76-2.48L72.86-2.48Q72.90-1.60 73.53-0.97Q74.15-0.34 75.04-0.34L75.04-0.34Q75.04-0.34 75.24-0.34Q75.45-0.34 75.48-0.34L75.48-0.34L75.48 0L72.76 0ZM72.86-21.32L72.76-21.32L72.76-23.80L75.48-23.80L75.48-23.46Q75.45-23.46 75.24-23.46Q75.04-23.46 75.04-23.46L75.04-23.46Q74.15-23.46 73.53-22.83Q72.90-22.20 72.86-21.32L72.86-21.32ZM102.71-9.93L102.99-9.93L102.58-4.59Q101.69-3.13 100.35-1.99Q99.01-0.85 97.19-0.19Q95.37 0.48 93.02 0.48L93.02 0.48Q89.49 0.44 86.73-1.09Q83.98-2.62 82.43-5.39Q80.89-8.16 80.89-11.93L80.89-11.93Q80.89-15.64 82.42-18.41Q83.95-21.18 86.72-22.73Q89.49-24.28 93.23-24.28L93.23-24.28Q95.74-24.28 97.77-23.61Q99.79-22.95 101.29-21.96L101.29-21.96L101.97-17.17L101.66-17.17Q100.91-20.16 98.60-21.71Q96.29-23.26 93.23-23.26L93.23-23.26Q90.24-23.26 88.04-21.85Q85.85-20.43 84.64-17.90Q83.44-15.37 83.44-11.97L83.44-11.97Q83.44-8.57 84.64-6.02Q85.85-3.47 88.01-2.04Q90.17-0.61 93.02-0.54L93.02-0.54Q95.44-0.54 97.50-1.45Q99.55-2.35 100.95-4.40Q102.34-6.46 102.71-9.93L102.71-9.93ZM115.26-24.28L115.26-24.28Q115.80-24.28 116.43-24.21Q117.06-24.14 117.66-24.02Q118.25-23.90 118.75-23.78Q119.24-23.66 119.51-23.53L119.51-23.53L119.51-19.75L119.20-19.75Q119.20-21.39 118.08-22.32Q116.96-23.26 115.36-23.26L115.36-23.26Q113.49-23.26 112.34-22.08Q111.18-20.91 111.18-19.35L111.18-19.35Q111.18-18.70 111.47-17.83Q111.76-16.97 112.54-16.22L112.54-16.22L119.24-10.03Q120.26-9.08 120.60-7.99Q120.94-6.90 120.94-5.88L120.94-5.88Q120.94-3.06 119.22-1.29Q117.50 0.48 114.58 0.48L114.58 0.48Q113.76 0.48 112.66 0.31Q111.55 0.14 110.52-0.29Q109.48-0.71 108.80-1.39L108.80-1.39Q108.70-1.94 108.70-2.75Q108.70-3.57 108.83-4.47Q108.97-5.37 109.21-6.12L109.21-6.12L109.51-6.12Q109.34-4.39 109.96-3.09Q110.57-1.80 111.74-1.14Q112.91-0.48 114.41-0.54L114.41-0.54Q116.28-0.65 117.62-1.85Q118.97-3.06 118.97-5.10L118.97-5.10Q118.97-6.09 118.63-6.89Q118.29-7.68 117.64-8.26L117.64-8.26L111.11-14.31Q110.09-15.27 109.68-16.41Q109.28-17.54 109.28-18.53L109.28-18.53Q109.28-19.96 109.96-21.28Q110.64-22.61 111.98-23.44Q113.32-24.28 115.26-24.28ZM116.93-23.94L119.51-23.94L119.51-23.22L116.93-23.22L116.93-23.94Z" fill="#f0f6f2"/>
</g>
</svg>