<svg xmlns="http://www.w3.org/2000/svg" viewBox="0 0 64 64" width="64" height="64" role="img" aria-label="Relics">

  <defs>
    <linearGradient id="au" x1="0" y1="0" x2="0" y2="1">
      <stop offset="0" stop-color="#eed9a4"/>
      <stop offset="0.55" stop-color="#d9b36a"/>
      <stop offset="1" stop-color="#b58a3e"/>
    </linearGradient>
    <linearGradient id="gem" x1="0" y1="0" x2="0" y2="1">
      <stop offset="0" stop-color="#4fc3a1"/>
      <stop offset="1" stop-color="#2e8a74"/>
    </linearGradient>
  </defs>

  
    <path d="M22 11.5 C11.5 13.5 10 24.5 17.5 28.5" fill="none" stroke="url(#au)" stroke-width="2.9" stroke-linecap="round"/>
    <path d="M42 11.5 C52.5 13.5 54 24.5 46.5 28.5" fill="none" stroke="url(#au)" stroke-width="2.9" stroke-linecap="round"/>
  <path d="M22.5 5
    L41.5 5
    Q43 5 43 6.5
    L43 8.5
    Q43 10 41.5 10
    L37.8 10
    C37.8 13 38.4 15.4 41 17.2
    C47 21.2 50 25.5 50 30.5
    C50 39.5 43 45 38 46.8
    L37.6 50
    L40.5 51.5
    Q42.5 52.5 42.5 54.5
    L42.5 55.5
    Q42.5 57.5 40.5 57.5
    L23.5 57.5
    Q21.5 57.5 21.5 55.5
    L21.5 54.5
    Q21.5 52.5 23.5 51.5
    L26.4 50
    L26 46.8
    C21 45 14 39.5 14 30.5
    C14 25.5 17 21.2 23 17.2
    C25.6 15.4 26.2 13 26.2 10
    L22.5 10
    Q21 10 21 8.5
    L21 6.5
    Q21 5 22.5 5
    Z
    M32 21.5 L40.5 30.5 L32 39.5 L23.5 30.5 Z" fill="url(#au)" fill-rule="evenodd"/>
  
    <path d="M32 23.5 L38.5 30.5 L32 37.5 L25.5 30.5 Z" fill="url(#gem)"/>
    <path d="M32 26.5 L35.7 30.5 L32 34.5 L28.3 30.5 Z" fill="none" stroke="#eed9a4" stroke-width="0.8" opacity="0.9"/>
    <path d="M32 23.5 L32 26.5 M38.5 30.5 L35.7 30.5 M32 37.5 L32 34.5 M25.5 30.5 L28.3 30.5" stroke="#eed9a4" stroke-width="0.8" opacity="0.9"/>
</svg>