<svg xmlns="http://www.w3.org/2000/svg" viewBox="0 0 32 24" width="128" height="96" role="img" aria-label="Relics">

<g shape-rendering="crispEdges">
<rect x="11" y="3" width="10" height="1" fill="#16241f"/>
<rect x="9" y="4" width="2" height="1" fill="#16241f"/>
<rect x="11" y="4" width="8" height="1" fill="#f2f7f1"/>
<rect x="19" y="4" width="2" height="1" fill="#a9bfb4"/>
<rect x="21" y="4" width="2" height="1" fill="#16241f"/>
<rect x="8" y="5" width="1" height="1" fill="#16241f"/>
<rect x="9" y="5" width="7" height="1" fill="#f2f7f1"/>
<rect x="16" y="5" width="1" height="1" fill="#4fc3a1"/>
<rect x="17" y="5" width="4" height="1" fill="#f2f7f1"/>
<rect x="21" y="5" width="2" height="1" fill="#a9bfb4"/>
<rect x="23" y="5" width="1" height="1" fill="#16241f"/>
<rect x="8" y="6" width="1" height="1" fill="#16241f"/>
<rect x="9" y="6" width="6" height="1" fill="#f2f7f1"/>
<rect x="15" y="6" width="1" height="1" fill="#4fc3a1"/>
<rect x="16" y="6" width="1" height="1" fill="#9fe8cd"/>
<rect x="17" y="6" width="1" height="1" fill="#4fc3a1"/>
<rect x="18" y="6" width="3" height="1" fill="#f2f7f1"/>
<rect x="21" y="6" width="2" height="1" fill="#a9bfb4"/>
<rect x="23" y="6" width="1" height="1" fill="#16241f"/>
<rect x="8" y="7" width="1" height="1" fill="#16241f"/>
<rect x="9" y="7" width="5" height="1" fill="#f2f7f1"/>
<rect x="14" y="7" width="2" height="1" fill="#4fc3a1"/>
<rect x="16" y="7" width="1" height="1" fill="#9fe8cd"/>
<rect x="17" y="7" width="2" height="1" fill="#4fc3a1"/>
<rect x="19" y="7" width="2" height="1" fill="#f2f7f1"/>
<rect x="21" y="7" width="2" height="1" fill="#a9bfb4"/>
<rect x="23" y="7" width="1" height="1" fill="#16241f"/>
<rect x="8" y="8" width="1" height="1" fill="#16241f"/>
<rect x="9" y="8" width="6" height="1" fill="#f2f7f1"/>
<rect x="15" y="8" width="3" height="1" fill="#4fc3a1"/>
<rect x="18" y="8" width="3" height="1" fill="#f2f7f1"/>
<rect x="21" y="8" width="2" height="1" fill="#a9bfb4"/>
<rect x="23" y="8" width="1" height="1" fill="#16241f"/>
<rect x="8" y="9" width="1" height="1" fill="#16241f"/>
<rect x="9" y="9" width="7" height="1" fill="#f2f7f1"/>
<rect x="16" y="9" width="1" height="1" fill="#4fc3a1"/>
<rect x="17" y="9" width="4" height="1" fill="#f2f7f1"/>
<rect x="21" y="9" width="2" height="1" fill="#a9bfb4"/>
<rect x="23" y="9" width="1" height="1" fill="#16241f"/>
<rect x="8" y="10" width="1" height="1" fill="#16241f"/>
<rect x="9" y="10" width="12" height="1" fill="#f2f7f1"/>
<rect x="21" y="10" width="2" height="1" fill="#a9bfb4"/>
<rect x="23" y="10" width="1" height="1" fill="#16241f"/>
<rect x="8" y="11" width="1" height="1" fill="#16241f"/>
<rect x="9" y="11" width="1" height="1" fill="#f2f7f1"/>
<rect x="10" y="11" width="4" height="1" fill="#16241f"/>
<rect x="14" y="11" width="4" height="1" fill="#f2f7f1"/>
<rect x="18" y="11" width="4" height="1" fill="#16241f"/>
<rect x="22" y="11" width="1" height="1" fill="#a9bfb4"/>
<rect x="23" y="11" width="1" height="1" fill="#16241f"/>
<rect x="3" y="12" width="4" height="1" fill="#16241f"/>
<rect x="8" y="12" width="1" height="1" fill="#16241f"/>
<rect x="9" y="12" width="1" height="1" fill="#f2f7f1"/>
<rect x="10" y="12" width="4" height="1" fill="#16241f"/>
<rect x="14" y="12" width="4" height="1" fill="#f2f7f1"/>
<rect x="18" y="12" width="4" height="1" fill="#16241f"/>
<rect x="22" y="12" width="1" height="1" fill="#a9bfb4"/>
<rect x="23" y="12" width="1" height="1" fill="#16241f"/>
<rect x="2" y="13" width="1" height="1" fill="#16241f"/>
<rect x="3" y="13" width="4" height="1" fill="#9fe8cd"/>
<rect x="7" y="13" width="2" height="1" fill="#16241f"/>
<rect x="9" y="13" width="1" height="1" fill="#f2f7f1"/>
<rect x="10" y="13" width="4" height="1" fill="#16241f"/>
<rect x="14" y="13" width="4" height="1" fill="#f2f7f1"/>
<rect x="18" y="13" width="4" height="1" fill="#16241f"/>
<rect x="22" y="13" width="1" height="1" fill="#a9bfb4"/>
<rect x="23" y="13" width="1" height="1" fill="#16241f"/>
<rect x="28" y="13" width="2" height="1" fill="#16241f"/>
<rect x="1" y="14" width="1" height="1" fill="#16241f"/>
<rect x="2" y="14" width="1" height="1" fill="#2c7f68"/>
<rect x="3" y="14" width="3" height="1" fill="#9fe8cd"/>
<rect x="6" y="14" width="1" height="1" fill="#16241f"/>
<rect x="7" y="14" width="1" height="1" fill="#9fe8cd"/>
<rect x="8" y="14" width="1" height="1" fill="#16241f"/>
<rect x="9" y="14" width="12" height="1" fill="#f2f7f1"/>
<rect x="21" y="14" width="2" height="1" fill="#a9bfb4"/>
<rect x="23" y="14" width="1" height="1" fill="#16241f"/>
<rect x="27" y="14" width="1" height="1" fill="#16241f"/>
<rect x="28" y="14" width="2" height="1" fill="#9fe8cd"/>
<rect x="30" y="14" width="1" height="1" fill="#16241f"/>
<rect x="1" y="15" width="1" height="1" fill="#16241f"/>
<rect x="2" y="15" width="1" height="1" fill="#2c7f68"/>
<rect x="3" y="15" width="4" height="1" fill="#9fe8cd"/>
<rect x="7" y="15" width="2" height="1" fill="#16241f"/>
<rect x="9" y="15" width="6" height="1" fill="#f2f7f1"/>
<rect x="15" y="15" width="2" height="1" fill="#16241f"/>
<rect x="17" y="15" width="4" height="1" fill="#f2f7f1"/>
<rect x="21" y="15" width="2" height="1" fill="#a9bfb4"/>
<rect x="23" y="15" width="5" height="1" fill="#16241f"/>
<rect x="28" y="15" width="2" height="1" fill="#9fe8cd"/>
<rect x="30" y="15" width="1" height="1" fill="#16241f"/>
<rect x="1" y="16" width="1" height="1" fill="#16241f"/>
<rect x="2" y="16" width="1" height="1" fill="#2c7f68"/>
<rect x="3" y="16" width="3" height="1" fill="#9fe8cd"/>
<rect x="6" y="16" width="1" height="1" fill="#16241f"/>
<rect x="7" y="16" width="1" height="1" fill="#9fe8cd"/>
<rect x="8" y="16" width="1" height="1" fill="#16241f"/>
<rect x="9" y="16" width="5" height="1" fill="#f2f7f1"/>
<rect x="14" y="16" width="4" height="1" fill="#16241f"/>
<rect x="18" y="16" width="3" height="1" fill="#f2f7f1"/>
<rect x="21" y="16" width="2" height="1" fill="#a9bfb4"/>
<rect x="23" y="16" width="1" height="1" fill="#16241f"/>
<rect x="24" y="16" width="3" height="1" fill="#4fc3a1"/>
<rect x="27" y="16" width="1" height="1" fill="#16241f"/>
<rect x="28" y="16" width="2" height="1" fill="#4fc3a1"/>
<rect x="30" y="16" width="1" height="1" fill="#16241f"/>
<rect x="1" y="17" width="1" height="1" fill="#16241f"/>
<rect x="2" y="17" width="1" height="1" fill="#2c7f68"/>
<rect x="3" y="17" width="4" height="1" fill="#4fc3a1"/>
<rect x="7" y="17" width="1" height="1" fill="#16241f"/>
<rect x="8" y="17" width="1" height="1" fill="#4fc3a1"/>
<rect x="9" y="17" width="1" height="1" fill="#16241f"/>
<rect x="10" y="17" width="10" height="1" fill="#f2f7f1"/>
<rect x="20" y="17" width="2" height="1" fill="#a9bfb4"/>
<rect x="22" y="17" width="1" height="1" fill="#16241f"/>
<rect x="23" y="17" width="4" height="1" fill="#4fc3a1"/>
<rect x="27" y="17" width="1" height="1" fill="#16241f"/>
<rect x="28" y="17" width="2" height="1" fill="#4fc3a1"/>
<rect x="30" y="17" width="1" height="1" fill="#16241f"/>
<rect x="1" y="18" width="1" height="1" fill="#16241f"/>
<rect x="2" y="18" width="1" height="1" fill="#2c7f68"/>
<rect x="3" y="18" width="3" height="1" fill="#4fc3a1"/>
<rect x="6" y="18" width="1" height="1" fill="#16241f"/>
<rect x="7" y="18" width="3" height="1" fill="#4fc3a1"/>
<rect x="10" y="18" width="1" height="1" fill="#16241f"/>
<rect x="11" y="18" width="9" height="1" fill="#f2f7f1"/>
<rect x="20" y="18" width="1" height="1" fill="#a9bfb4"/>
<rect x="21" y="18" width="7" height="1" fill="#16241f"/>
<rect x="28" y="18" width="2" height="1" fill="#4fc3a1"/>
<rect x="30" y="18" width="1" height="1" fill="#16241f"/>
<rect x="1" y="19" width="1" height="1" fill="#16241f"/>
<rect x="2" y="19" width="5" height="1" fill="#2c7f68"/>
<rect x="7" y="19" width="1" height="1" fill="#16241f"/>
<rect x="8" y="19" width="3" height="1" fill="#2c7f68"/>
<rect x="11" y="19" width="1" height="1" fill="#16241f"/>
<rect x="12" y="19" width="8" height="1" fill="#f2f7f1"/>
<rect x="20" y="19" width="1" height="1" fill="#16241f"/>
<rect x="27" y="19" width="1" height="1" fill="#16241f"/>
<rect x="28" y="19" width="2" height="1" fill="#4fc3a1"/>
<rect x="30" y="19" width="1" height="1" fill="#16241f"/>
<rect x="1" y="20" width="1" height="1" fill="#16241f"/>
<rect x="2" y="20" width="4" height="1" fill="#2c7f68"/>
<rect x="6" y="20" width="1" height="1" fill="#16241f"/>
<rect x="7" y="20" width="4" height="1" fill="#2c7f68"/>
<rect x="11" y="20" width="1" height="1" fill="#16241f"/>
<rect x="12" y="20" width="2" height="1" fill="#f2f7f1"/>
<rect x="14" y="20" width="1" height="1" fill="#16241f"/>
<rect x="15" y="20" width="2" height="1" fill="#f2f7f1"/>
<rect x="17" y="20" width="1" height="1" fill="#16241f"/>
<rect x="18" y="20" width="1" height="1" fill="#f2f7f1"/>
<rect x="19" y="20" width="1" height="1" fill="#a9bfb4"/>
<rect x="20" y="20" width="1" height="1" fill="#16241f"/>
<rect x="28" y="20" width="2" height="1" fill="#16241f"/>
<rect x="2" y="21" width="10" height="1" fill="#16241f"/>
<rect x="12" y="21" width="2" height="1" fill="#f2f7f1"/>
<rect x="14" y="21" width="1" height="1" fill="#16241f"/>
<rect x="15" y="21" width="2" height="1" fill="#f2f7f1"/>
<rect x="17" y="21" width="1" height="1" fill="#16241f"/>
<rect x="18" y="21" width="1" height="1" fill="#f2f7f1"/>
<rect x="19" y="21" width="1" height="1" fill="#a9bfb4"/>
<rect x="20" y="21" width="1" height="1" fill="#16241f"/>
<rect x="4" y="22" width="1" height="1" fill="#9fe8cd"/>
<rect x="5" y="22" width="1" height="1" fill="#4fc3a1"/>
<rect x="11" y="22" width="1" height="1" fill="#16241f"/>
<rect x="12" y="22" width="2" height="1" fill="#f2f7f1"/>
<rect x="14" y="22" width="1" height="1" fill="#16241f"/>
<rect x="15" y="22" width="2" height="1" fill="#f2f7f1"/>
<rect x="17" y="22" width="1" height="1" fill="#16241f"/>
<rect x="18" y="22" width="1" height="1" fill="#f2f7f1"/>
<rect x="19" y="22" width="1" height="1" fill="#a9bfb4"/>
<rect x="20" y="22" width="1" height="1" fill="#16241f"/>
<rect x="4" y="23" width="2" height="1" fill="#4fc3a1"/>
<rect x="6" y="23" width="1" height="1" fill="#2c7f68"/>
<rect x="11" y="23" width="10" height="1" fill="#16241f"/>
</g>
</svg>