<svg xmlns="http://www.w3.org/2000/svg" viewBox="0 0 239 64" width="239" height="64" role="img" aria-label="Relics - Your ENS Market">

<g transform="translate(0.8 4) scale(2.3333)">
<g shape-rendering="crispEdges">
<rect x="11" y="3" width="10" height="1" fill="#16241f"/>
<rect x="9" y="4" width="2" height="1" fill="#16241f"/>
<rect x="11" y="4" width="8" height="1" fill="#f2f7f1"/>
<rect x="19" y="4" width="2" height="1" fill="#a9bfb4"/>
<rect x="21" y="4" width="2" height="1" fill="#16241f"/>
<rect x="8" y="5" width="1" height="1" fill="#16241f"/>
<rect x="9" y="5" width="7" height="1" fill="#f2f7f1"/>
<rect x="16" y="5" width="1" height="1" fill="#4fc3a1"/>
<rect x="17" y="5" width="4" height="1" fill="#f2f7f1"/>
<rect x="21" y="5" width="2" height="1" fill="#a9bfb4"/>
<rect x="23" y="5" width="1" height="1" fill="#16241f"/>
<rect x="8" y="6" width="1" height="1" fill="#16241f"/>
<rect x="9" y="6" width="6" height="1" fill="#f2f7f1"/>
<rect x="15" y="6" width="1" height="1" fill="#4fc3a1"/>
<rect x="16" y="6" width="1" height="1" fill="#9fe8cd"/>
<rect x="17" y="6" width="1" height="1" fill="#4fc3a1"/>
<rect x="18" y="6" width="3" height="1" fill="#f2f7f1"/>
<rect x="21" y="6" width="2" height="1" fill="#a9bfb4"/>
<rect x="23" y="6" width="1" height="1" fill="#16241f"/>
<rect x="8" y="7" width="1" height="1" fill="#16241f"/>
<rect x="9" y="7" width="5" height="1" fill="#f2f7f1"/>
<rect x="14" y="7" width="2" height="1" fill="#4fc3a1"/>
<rect x="16" y="7" width="1" height="1" fill="#9fe8cd"/>
<rect x="17" y="7" width="2" height="1" fill="#4fc3a1"/>
<rect x="19" y="7" width="2" height="1" fill="#f2f7f1"/>
<rect x="21" y="7" width="2" height="1" fill="#a9bfb4"/>
<rect x="23" y="7" width="1" height="1" fill="#16241f"/>
<rect x="8" y="8" width="1" height="1" fill="#16241f"/>
<rect x="9" y="8" width="6" height="1" fill="#f2f7f1"/>
<rect x="15" y="8" width="3" height="1" fill="#4fc3a1"/>
<rect x="18" y="8" width="3" height="1" fill="#f2f7f1"/>
<rect x="21" y="8" width="2" height="1" fill="#a9bfb4"/>
<rect x="23" y="8" width="1" height="1" fill="#16241f"/>
<rect x="8" y="9" width="1" height="1" fill="#16241f"/>
<rect x="9" y="9" width="7" height="1" fill="#f2f7f1"/>
<rect x="16" y="9" width="1" height="1" fill="#4fc3a1"/>
<rect x="17" y="9" width="4" height="1" fill="#f2f7f1"/>
<rect x="21" y="9" width="2" height="1" fill="#a9bfb4"/>
<rect x="23" y="9" width="1" height="1" fill="#16241f"/>
<rect x="8" y="10" width="1" height="1" fill="#16241f"/>
<rect x="9" y="10" width="12" height="1" fill="#f2f7f1"/>
<rect x="21" y="10" width="2" height="1" fill="#a9bfb4"/>
<rect x="23" y="10" width="1" height="1" fill="#16241f"/>
<rect x="8" y="11" width="1" height="1" fill="#16241f"/>
<rect x="9" y="11" width="1" height="1" fill="#f2f7f1"/>
<rect x="10" y="11" width="4" height="1" fill="#16241f"/>
<rect x="14" y="11" width="4" height="1" fill="#f2f7f1"/>
<rect x="18" y="11" width="4" height="1" fill="#16241f"/>
<rect x="22" y="11" width="1" height="1" fill="#a9bfb4"/>
<rect x="23" y="11" width="1" height="1" fill="#16241f"/>
<rect x="3" y="12" width="4" height="1" fill="#16241f"/>
<rect x="8" y="12" width="1" height="1" fill="#16241f"/>
<rect x="9" y="12" width="1" height="1" fill="#f2f7f1"/>
<rect x="10" y="12" width="4" height="1" fill="#16241f"/>
<rect x="14" y="12" width="4" height="1" fill="#f2f7f1"/>
<rect x="18" y="12" width="4" height="1" fill="#16241f"/>
<rect x="22" y="12" width="1" height="1" fill="#a9bfb4"/>
<rect x="23" y="12" width="1" height="1" fill="#16241f"/>
<rect x="2" y="13" width="1" height="1" fill="#16241f"/>
<rect x="3" y="13" width="4" height="1" fill="#9fe8cd"/>
<rect x="7" y="13" width="2" height="1" fill="#16241f"/>
<rect x="9" y="13" width="1" height="1" fill="#f2f7f1"/>
<rect x="10" y="13" width="4" height="1" fill="#16241f"/>
<rect x="14" y="13" width="4" height="1" fill="#f2f7f1"/>
<rect x="18" y="13" width="4" height="1" fill="#16241f"/>
<rect x="22" y="13" width="1" height="1" fill="#a9bfb4"/>
<rect x="23" y="13" width="1" height="1" fill="#16241f"/>
<rect x="28" y="13" width="2" height="1" fill="#16241f"/>
<rect x="1" y="14" width="1" height="1" fill="#16241f"/>
<rect x="2" y="14" width="1" height="1" fill="#2c7f68"/>
<rect x="3" y="14" width="3" height="1" fill="#9fe8cd"/>
<rect x="6" y="14" width="1" height="1" fill="#16241f"/>
<rect x="7" y="14" width="1" height="1" fill="#9fe8cd"/>
<rect x="8" y="14" width="1" height="1" fill="#16241f"/>
<rect x="9" y="14" width="12" height="1" fill="#f2f7f1"/>
<rect x="21" y="14" width="2" height="1" fill="#a9bfb4"/>
<rect x="23" y="14" width="1" height="1" fill="#16241f"/>
<rect x="27" y="14" width="1" height="1" fill="#16241f"/>
<rect x="28" y="14" width="2" height="1" fill="#9fe8cd"/>
<rect x="30" y="14" width="1" height="1" fill="#16241f"/>
<rect x="1" y="15" width="1" height="1" fill="#16241f"/>
<rect x="2" y="15" width="1" height="1" fill="#2c7f68"/>
<rect x="3" y="15" width="4" height="1" fill="#9fe8cd"/>
<rect x="7" y="15" width="2" height="1" fill="#16241f"/>
<rect x="9" y="15" width="6" height="1" fill="#f2f7f1"/>
<rect x="15" y="15" width="2" height="1" fill="#16241f"/>
<rect x="17" y="15" width="4" height="1" fill="#f2f7f1"/>
<rect x="21" y="15" width="2" height="1" fill="#a9bfb4"/>
<rect x="23" y="15" width="5" height="1" fill="#16241f"/>
<rect x="28" y="15" width="2" height="1" fill="#9fe8cd"/>
<rect x="30" y="15" width="1" height="1" fill="#16241f"/>
<rect x="1" y="16" width="1" height="1" fill="#16241f"/>
<rect x="2" y="16" width="1" height="1" fill="#2c7f68"/>
<rect x="3" y="16" width="3" height="1" fill="#9fe8cd"/>
<rect x="6" y="16" width="1" height="1" fill="#16241f"/>
<rect x="7" y="16" width="1" height="1" fill="#9fe8cd"/>
<rect x="8" y="16" width="1" height="1" fill="#16241f"/>
<rect x="9" y="16" width="5" height="1" fill="#f2f7f1"/>
<rect x="14" y="16" width="4" height="1" fill="#16241f"/>
<rect x="18" y="16" width="3" height="1" fill="#f2f7f1"/>
<rect x="21" y="16" width="2" height="1" fill="#a9bfb4"/>
<rect x="23" y="16" width="1" height="1" fill="#16241f"/>
<rect x="24" y="16" width="3" height="1" fill="#4fc3a1"/>
<rect x="27" y="16" width="1" height="1" fill="#16241f"/>
<rect x="28" y="16" width="2" height="1" fill="#4fc3a1"/>
<rect x="30" y="16" width="1" height="1" fill="#16241f"/>
<rect x="1" y="17" width="1" height="1" fill="#16241f"/>
<rect x="2" y="17" width="1" height="1" fill="#2c7f68"/>
<rect x="3" y="17" width="4" height="1" fill="#4fc3a1"/>
<rect x="7" y="17" width="1" height="1" fill="#16241f"/>
<rect x="8" y="17" width="1" height="1" fill="#4fc3a1"/>
<rect x="9" y="17" width="1" height="1" fill="#16241f"/>
<rect x="10" y="17" width="10" height="1" fill="#f2f7f1"/>
<rect x="20" y="17" width="2" height="1" fill="#a9bfb4"/>
<rect x="22" y="17" width="1" height="1" fill="#16241f"/>
<rect x="23" y="17" width="4" height="1" fill="#4fc3a1"/>
<rect x="27" y="17" width="1" height="1" fill="#16241f"/>
<rect x="28" y="17" width="2" height="1" fill="#4fc3a1"/>
<rect x="30" y="17" width="1" height="1" fill="#16241f"/>
<rect x="1" y="18" width="1" height="1" fill="#16241f"/>
<rect x="2" y="18" width="1" height="1" fill="#2c7f68"/>
<rect x="3" y="18" width="3" height="1" fill="#4fc3a1"/>
<rect x="6" y="18" width="1" height="1" fill="#16241f"/>
<rect x="7" y="18" width="3" height="1" fill="#4fc3a1"/>
<rect x="10" y="18" width="1" height="1" fill="#16241f"/>
<rect x="11" y="18" width="9" height="1" fill="#f2f7f1"/>
<rect x="20" y="18" width="1" height="1" fill="#a9bfb4"/>
<rect x="21" y="18" width="7" height="1" fill="#16241f"/>
<rect x="28" y="18" width="2" height="1" fill="#4fc3a1"/>
<rect x="30" y="18" width="1" height="1" fill="#16241f"/>
<rect x="1" y="19" width="1" height="1" fill="#16241f"/>
<rect x="2" y="19" width="5" height="1" fill="#2c7f68"/>
<rect x="7" y="19" width="1" height="1" fill="#16241f"/>
<rect x="8" y="19" width="3" height="1" fill="#2c7f68"/>
<rect x="11" y="19" width="1" height="1" fill="#16241f"/>
<rect x="12" y="19" width="8" height="1" fill="#f2f7f1"/>
<rect x="20" y="19" width="1" height="1" fill="#16241f"/>
<rect x="27" y="19" width="1" height="1" fill="#16241f"/>
<rect x="28" y="19" width="2" height="1" fill="#4fc3a1"/>
<rect x="30" y="19" width="1" height="1" fill="#16241f"/>
<rect x="1" y="20" width="1" height="1" fill="#16241f"/>
<rect x="2" y="20" width="4" height="1" fill="#2c7f68"/>
<rect x="6" y="20" width="1" height="1" fill="#16241f"/>
<rect x="7" y="20" width="4" height="1" fill="#2c7f68"/>
<rect x="11" y="20" width="1" height="1" fill="#16241f"/>
<rect x="12" y="20" width="2" height="1" fill="#f2f7f1"/>
<rect x="14" y="20" width="1" height="1" fill="#16241f"/>
<rect x="15" y="20" width="2" height="1" fill="#f2f7f1"/>
<rect x="17" y="20" width="1" height="1" fill="#16241f"/>
<rect x="18" y="20" width="1" height="1" fill="#f2f7f1"/>
<rect x="19" y="20" width="1" height="1" fill="#a9bfb4"/>
<rect x="20" y="20" width="1" height="1" fill="#16241f"/>
<rect x="28" y="20" width="2" height="1" fill="#16241f"/>
<rect x="2" y="21" width="10" height="1" fill="#16241f"/>
<rect x="12" y="21" width="2" height="1" fill="#f2f7f1"/>
<rect x="14" y="21" width="1" height="1" fill="#16241f"/>
<rect x="15" y="21" width="2" height="1" fill="#f2f7f1"/>
<rect x="17" y="21" width="1" height="1" fill="#16241f"/>
<rect x="18" y="21" width="1" height="1" fill="#f2f7f1"/>
<rect x="19" y="21" width="1" height="1" fill="#a9bfb4"/>
<rect x="20" y="21" width="1" height="1" fill="#16241f"/>
<rect x="4" y="22" width="1" height="1" fill="#9fe8cd"/>
<rect x="5" y="22" width="1" height="1" fill="#4fc3a1"/>
<rect x="11" y="22" width="1" height="1" fill="#16241f"/>
<rect x="12" y="22" width="2" height="1" fill="#f2f7f1"/>
<rect x="14" y="22" width="1" height="1" fill="#16241f"/>
<rect x="15" y="22" width="2" height="1" fill="#f2f7f1"/>
<rect x="17" y="22" width="1" height="1" fill="#16241f"/>
<rect x="18" y="22" width="1" height="1" fill="#f2f7f1"/>
<rect x="19" y="22" width="1" height="1" fill="#a9bfb4"/>
<rect x="20" y="22" width="1" height="1" fill="#16241f"/>
<rect x="4" y="23" width="2" height="1" fill="#4fc3a1"/>
<rect x="6" y="23" width="1" height="1" fill="#2c7f68"/>
<rect x="11" y="23" width="10" height="1" fill="#16241f"/>
</g>
</g>
<g transform="translate(80 34)">
  <path d="M6.43-23.80L6.43-23.80L11.22-23.80Q12.75-23.80 13.99-23.36Q15.23-22.92 16.08-22.08Q16.93-21.25 17.39-20.08Q17.85-18.90 17.85-17.41L17.85-17.41Q17.85-15.78 17.09-14.28Q16.32-12.78 15.01-11.85Q13.70-10.91 12.07-10.91L12.07-10.91Q12.65-10.68 13.33-9.95Q14.01-9.21 14.52-8.53L14.52-8.53Q14.52-8.53 14.98-7.87Q15.44-7.21 16.13-6.26Q16.83-5.30 17.54-4.39Q18.26-3.47 18.77-2.92L18.77-2.92Q19.45-2.18 20.13-1.60Q20.81-1.02 21.61-0.68Q22.41-0.34 23.39-0.34L23.39-0.34L23.39 0L21.52 0Q19.96 0 18.82-0.48Q17.68-0.95 16.90-1.65Q16.12-2.35 15.57-2.99L15.57-2.99Q15.47-3.13 15.01-3.77Q14.55-4.42 13.92-5.32Q13.29-6.22 12.68-7.11Q12.07-7.99 11.63-8.62Q11.19-9.25 11.12-9.35L11.12-9.35Q10.47-10.20 9.69-10.91Q8.91-11.63 7.99-11.63L7.99-11.63L7.99-11.97Q7.99-11.97 8.52-11.95Q9.04-11.93 9.79-11.97L9.79-11.97Q10.68-12.00 11.73-12.24Q12.78-12.48 13.70-13.23Q14.62-13.97 15.10-15.50L15.10-15.50Q15.20-15.88 15.27-16.44Q15.33-17 15.30-17.54L15.30-17.54Q15.27-19.86 14.13-21.23Q12.99-22.61 11.08-22.71L11.08-22.71Q10.13-22.78 9.13-22.76Q8.13-22.75 7.45-22.75Q6.77-22.75 6.77-22.75L6.77-22.75Q6.77-22.78 6.68-23.04Q6.60-23.29 6.51-23.55Q6.43-23.80 6.43-23.80ZM4.66-23.80L6.87-23.80L6.87 0L4.66 0L4.66-23.80ZM4.66-2.48L4.76-2.48L4.76 0L2.04 0L2.04-0.34Q2.04-0.34 2.26-0.34Q2.48-0.34 2.48-0.34L2.48-0.34Q3.37-0.34 4.00-0.97Q4.62-1.60 4.66-2.48L4.66-2.48ZM4.76-23.80L4.76-21.32L4.66-21.32Q4.62-22.20 4.00-22.83Q3.37-23.46 2.48-23.46L2.48-23.46Q2.48-23.46 2.26-23.46Q2.04-23.46 2.04-23.46L2.04-23.46L2.04-23.80L4.76-23.80ZM6.77 0L6.77-2.48L6.87-2.48Q6.87-1.60 7.51-0.97Q8.16-0.34 9.04-0.34L9.04-0.34Q9.04-0.34 9.25-0.34Q9.45-0.34 9.45-0.34L9.45-0.34L9.45 0L6.77 0ZM28.70-23.80L30.91-23.80L30.91 0L28.70 0L28.70-23.80ZM30.80-1.05L40.09-1.05L40.09 0L30.80 0L30.80-1.05ZM30.80-12.24L38.62-12.24L38.62-11.22L30.80-11.22L30.80-12.24ZM30.80-23.80L40.09-23.80L40.09-22.75L30.80-22.75L30.80-23.80ZM41.82-5.51L42.16-5.51L40.19 0L34.54 0L35.77-1.05Q37.57-1.05 38.71-1.62Q39.85-2.18 40.56-3.20Q41.28-4.22 41.82-5.51L41.82-5.51ZM36.65-11.29L38.62-11.29L38.62-9.04L38.28-9.04L38.28-9.55Q38.28-10.23 37.81-10.73Q37.33-11.22 36.65-11.22L36.65-11.22L36.65-11.29ZM38.28-14.42L38.62-14.42L38.62-12.17L36.65-12.17L36.65-12.24Q37.33-12.27 37.81-12.77Q38.28-13.26 38.28-13.94L38.28-13.94L38.28-14.42ZM37.74-22.85L40.09-22.85L40.09-20.13L39.75-20.13L39.75-20.74Q39.75-21.56 39.17-22.15Q38.59-22.75 37.74-22.78L37.74-22.78L37.74-22.85ZM40.09-24.41L40.09-24.41L40.09-23.43L35.94-23.80Q36.69-23.80 37.52-23.90Q38.35-24.00 39.07-24.14Q39.78-24.28 40.09-24.41ZM28.70-2.48L28.80-2.48L28.80 0L26.08 0L26.08-0.34Q26.08-0.34 26.30-0.34Q26.52-0.34 26.52-0.34L26.52-0.34Q27.40-0.34 28.03-0.97Q28.66-1.60 28.70-2.48L28.70-2.48ZM28.80-23.80L28.80-21.32L28.70-21.32Q28.70-22.20 28.05-22.83Q27.40-23.46 26.52-23.46L26.52-23.46Q26.52-23.46 26.32-23.46Q26.11-23.46 26.11-23.46L26.11-23.46L26.08-23.80L28.80-23.80ZM50.01-23.80L52.22-23.80L52.22 0L50.01 0L50.01-23.80ZM52.12-1.05L61.40-1.05L61.40 0L52.12 0L52.12-1.05ZM63.14-5.51L63.48-5.51L61.51 0L55.86 0L57.09-1.05Q58.89-1.05 60.03-1.62Q61.17-2.18 61.88-3.20Q62.59-4.22 63.14-5.51L63.14-5.51ZM50.01-2.48L50.12-2.48L50.12 0L47.40 0L47.40-0.34Q47.40-0.34 47.62-0.34Q47.84-0.34 47.84-0.34L47.84-0.34Q48.72-0.34 49.35-0.97Q49.98-1.60 50.01-2.48L50.01-2.48ZM50.12-23.80L50.12-21.32L50.01-21.32Q49.98-22.20 49.35-22.83Q48.72-23.46 47.84-23.46L47.84-23.46Q47.84-23.46 47.62-23.46Q47.40-23.46 47.40-23.46L47.40-23.46L47.40-23.80L50.12-23.80ZM52.22-21.32L52.12-21.32L52.12-23.80L54.84-23.80L54.84-23.46Q54.81-23.46 54.60-23.46Q54.40-23.46 54.40-23.46L54.40-23.46Q53.52-23.46 52.89-22.83Q52.26-22.20 52.22-21.32L52.22-21.32ZM70.65-23.80L72.86-23.80L72.86 0L70.65 0L70.65-23.80ZM70.65-2.48L70.75-2.48L70.75 0L68.03 0L68.03-0.34Q68.03-0.34 68.25-0.34Q68.48-0.34 68.48-0.34L68.48-0.34Q69.36-0.34 69.99-0.97Q70.62-1.60 70.65-2.48L70.65-2.48ZM70.75-23.80L70.75-21.32L70.65-21.32Q70.62-22.20 69.99-22.83Q69.36-23.46 68.48-23.46L68.48-23.46Q68.48-23.46 68.25-23.46Q68.03-23.46 68.03-23.46L68.03-23.46L68.03-23.80L70.75-23.80ZM72.76 0L72.76-2.48L72.86-2.48Q72.90-1.60 73.53-0.97Q74.15-0.34 75.04-0.34L75.04-0.34Q75.04-0.34 75.24-0.34Q75.45-0.34 75.48-0.34L75.48-0.34L75.48 0L72.76 0ZM72.86-21.32L72.76-21.32L72.76-23.80L75.48-23.80L75.48-23.46Q75.45-23.46 75.24-23.46Q75.04-23.46 75.04-23.46L75.04-23.46Q74.15-23.46 73.53-22.83Q72.90-22.20 72.86-21.32L72.86-21.32ZM102.71-9.93L102.99-9.93L102.58-4.59Q101.69-3.13 100.35-1.99Q99.01-0.85 97.19-0.19Q95.37 0.48 93.02 0.48L93.02 0.48Q89.49 0.44 86.73-1.09Q83.98-2.62 82.43-5.39Q80.89-8.16 80.89-11.93L80.89-11.93Q80.89-15.64 82.42-18.41Q83.95-21.18 86.72-22.73Q89.49-24.28 93.23-24.28L93.23-24.28Q95.74-24.28 97.77-23.61Q99.79-22.95 101.29-21.96L101.29-21.96L101.97-17.17L101.66-17.17Q100.91-20.16 98.60-21.71Q96.29-23.26 93.23-23.26L93.23-23.26Q90.24-23.26 88.04-21.85Q85.85-20.43 84.64-17.90Q83.44-15.37 83.44-11.97L83.44-11.97Q83.44-8.57 84.64-6.02Q85.85-3.47 88.01-2.04Q90.17-0.61 93.02-0.54L93.02-0.54Q95.44-0.54 97.50-1.45Q99.55-2.35 100.95-4.40Q102.34-6.46 102.71-9.93L102.71-9.93ZM115.26-24.28L115.26-24.28Q115.80-24.28 116.43-24.21Q117.06-24.14 117.66-24.02Q118.25-23.90 118.75-23.78Q119.24-23.66 119.51-23.53L119.51-23.53L119.51-19.75L119.20-19.75Q119.20-21.39 118.08-22.32Q116.96-23.26 115.36-23.26L115.36-23.26Q113.49-23.26 112.34-22.08Q111.18-20.91 111.18-19.35L111.18-19.35Q111.18-18.70 111.47-17.83Q111.76-16.97 112.54-16.22L112.54-16.22L119.24-10.03Q120.26-9.08 120.60-7.99Q120.94-6.90 120.94-5.88L120.94-5.88Q120.94-3.06 119.22-1.29Q117.50 0.48 114.58 0.48L114.58 0.48Q113.76 0.48 112.66 0.31Q111.55 0.14 110.52-0.29Q109.48-0.71 108.80-1.39L108.80-1.39Q108.70-1.94 108.70-2.75Q108.70-3.57 108.83-4.47Q108.97-5.37 109.21-6.12L109.21-6.12L109.51-6.12Q109.34-4.39 109.96-3.09Q110.57-1.80 111.74-1.14Q112.91-0.48 114.41-0.54L114.41-0.54Q116.28-0.65 117.62-1.85Q118.97-3.06 118.97-5.10L118.97-5.10Q118.97-6.09 118.63-6.89Q118.29-7.68 117.64-8.26L117.64-8.26L111.11-14.31Q110.09-15.27 109.68-16.41Q109.28-17.54 109.28-18.53L109.28-18.53Q109.28-19.96 109.96-21.28Q110.64-22.61 111.98-23.44Q113.32-24.28 115.26-24.28ZM116.93-23.94L119.51-23.94L119.51-23.22L116.93-23.22L116.93-23.94Z" fill="#f0f6f2"/>
</g>
<g transform="translate(81 52)">
  <path d="M0.61-8.74L2.40-8.74L4.93-4.11L3.56-3.85L0.61-8.74ZM3.50-4.03L5.03-4.03L5.03 0L3.50 0L3.50-4.03ZM4.34-3.90L7.11-8.74L8.01-8.74L4.91-3.78L4.34-3.90ZM7.49-7.89L6.60-7.85Q6.70-8.03 6.65-8.21Q6.60-8.39 6.47-8.51Q6.34-8.63 6.16-8.63L6.16-8.63Q6.16-8.63 6.09-8.63Q6.01-8.63 6.01-8.63L6.01-8.63L6.01-8.75L8.93-8.75L8.93-8.63L8.75-8.63Q8.36-8.63 8.02-8.40Q7.68-8.18 7.49-7.89L7.49-7.89ZM2.89-7.85L2.89-7.85L1.13-7.89Q0.95-8.18 0.61-8.40Q0.28-8.63-0.13-8.63L-0.13-8.63L-0.30-8.63L-0.30-8.75L3.49-8.75L3.49-8.63Q3.49-8.63 3.41-8.63Q3.33-8.63 3.33-8.63L3.33-8.63Q3.05-8.63 2.91-8.37Q2.76-8.11 2.89-7.85ZM3.50-0.91L3.54-0.91L3.54 0L2.54 0L2.54-0.13Q2.54-0.13 2.61-0.13Q2.69-0.13 2.70-0.13L2.70-0.13Q3.03-0.13 3.26-0.36Q3.49-0.59 3.50-0.91L3.50-0.91ZM4.99 0L4.99-0.91L5.03-0.91Q5.03-0.59 5.26-0.36Q5.50-0.13 5.83-0.13L5.83-0.13Q5.83-0.13 5.90-0.13Q5.98-0.13 5.98-0.13L5.98-0.13L5.98 0L4.99 0ZM15.88-8.93L15.88-8.93Q17.31-8.93 18.39-8.37Q19.48-7.81 20.06-6.79Q20.65-5.76 20.65-4.38L20.65-4.38Q20.65-2.99 20.06-1.96Q19.48-0.94 18.39-0.38Q17.31 0.18 15.88 0.18L15.88 0.18Q14.43 0.18 13.35-0.38Q12.28-0.94 11.69-1.96Q11.10-2.99 11.10-4.38L11.10-4.38Q11.10-5.76 11.69-6.79Q12.28-7.81 13.35-8.37Q14.43-8.93 15.88-8.93ZM15.88-0.30L15.88-0.30Q16.81-0.30 17.51-0.80Q18.20-1.30 18.58-2.21Q18.96-3.13 18.96-4.38L18.96-4.38Q18.96-5.63 18.58-6.54Q18.20-7.45 17.51-7.95Q16.81-8.45 15.88-8.45L15.88-8.45Q14.94-8.45 14.24-7.95Q13.55-7.45 13.17-6.54Q12.79-5.63 12.79-4.38L12.79-4.38Q12.79-3.13 13.17-2.21Q13.55-1.30 14.24-0.80Q14.94-0.30 15.88-0.30ZM24.66-8.75L26.19-8.75L26.19-3.25Q26.19-2.36 26.49-1.70Q26.80-1.04 27.36-0.68Q27.92-0.31 28.67-0.31L28.67-0.31Q29.47-0.31 30.05-0.66Q30.63-1 30.94-1.62Q31.26-2.24 31.26-3.09L31.26-3.09L31.26-8.75L32.05-8.75L32.05-3.14Q32.05-2.14 31.63-1.39Q31.20-0.65 30.41-0.24Q29.61 0.18 28.52 0.18L28.52 0.18Q27.30 0.18 26.43-0.23Q25.56-0.64 25.11-1.38Q24.66-2.13 24.66-3.13L24.66-3.13L24.66-8.75ZM23.80-8.75L24.70-8.75L24.70-8L24.66-8Q24.66-8.28 24.47-8.45Q24.27-8.63 24-8.63L24-8.63Q24-8.63 23.90-8.63Q23.80-8.63 23.80-8.63L23.80-8.63L23.80-8.75ZM26.16-8.75L27.05-8.75L27.05-8.63Q27.05-8.63 26.95-8.63Q26.85-8.63 26.85-8.63L26.85-8.63Q26.57-8.63 26.38-8.45Q26.19-8.28 26.19-8L26.19-8L26.16-8L26.16-8.75ZM30.40-8.75L31.30-8.75L31.30-8L31.26-8Q31.26-8.28 31.07-8.45Q30.88-8.63 30.60-8.63L30.60-8.63Q30.60-8.63 30.50-8.63Q30.40-8.63 30.40-8.63L30.40-8.63L30.40-8.75ZM32.02-8.75L32.91-8.75L32.91-8.63Q32.91-8.63 32.81-8.63Q32.71-8.63 32.71-8.63L32.71-8.63Q32.44-8.63 32.24-8.45Q32.05-8.28 32.05-8L32.05-8L32.02-8L32.02-8.75ZM38.41-8.75L38.41-8.75L40.08-8.75Q40.64-8.75 41.14-8.61Q41.65-8.47 42.04-8.19Q42.43-7.90 42.64-7.46Q42.86-7.01 42.86-6.40L42.86-6.40Q42.86-5.85 42.63-5.31Q42.39-4.78 41.93-4.42Q41.46-4.06 40.79-4.01L40.79-4.01Q41.13-3.90 41.43-3.59Q41.74-3.29 41.94-2.99L41.94-2.99Q41.95-2.98 42.09-2.76Q42.24-2.54 42.45-2.23Q42.66-1.91 42.89-1.60Q43.13-1.29 43.30-1.07L43.30-1.07Q43.58-0.75 43.81-0.54Q44.04-0.34 44.30-0.23Q44.56-0.13 44.90-0.13L44.90-0.13L44.90 0L43.86 0Q43.21 0 42.71-0.14Q42.20-0.28 41.83-0.55Q41.45-0.83 41.18-1.24L41.18-1.24Q41.10-1.35 40.96-1.58Q40.83-1.81 40.66-2.10Q40.50-2.39 40.34-2.66Q40.19-2.93 40.08-3.14Q39.98-3.35 39.94-3.44L39.94-3.44Q39.74-3.80 39.50-4.03Q39.26-4.25 38.99-4.28L38.99-4.28L38.99-4.40Q39.01-4.40 39.15-4.39Q39.29-4.39 39.46-4.40L39.46-4.40Q39.80-4.41 40.14-4.53Q40.49-4.64 40.76-4.94Q41.04-5.25 41.16-5.80L41.16-5.80Q41.19-5.91 41.21-6.09Q41.24-6.26 41.23-6.45L41.23-6.45Q41.19-7.33 40.78-7.78Q40.36-8.22 39.73-8.25L39.73-8.25Q39.49-8.26 39.23-8.26Q38.96-8.25 38.77-8.25Q38.58-8.25 38.54-8.25L38.54-8.25Q38.54-8.26 38.51-8.39Q38.48-8.51 38.44-8.63Q38.41-8.75 38.41-8.75ZM37.05-8.75L38.58-8.75L38.58 0L37.05 0L37.05-8.75ZM37.05-0.91L37.09-0.91L37.09 0L36.09 0L36.09-0.13Q36.10-0.13 36.17-0.13Q36.24-0.13 36.25-0.13L36.25-0.13Q36.58-0.13 36.81-0.36Q37.04-0.59 37.05-0.91L37.05-0.91ZM37.09-8.75L37.09-7.84L37.05-7.84Q37.04-8.16 36.81-8.39Q36.58-8.63 36.25-8.63L36.25-8.63Q36.24-8.63 36.17-8.63Q36.10-8.63 36.09-8.63L36.09-8.63L36.09-8.75L37.09-8.75ZM38.54 0L38.54-0.91L38.58-0.91Q38.58-0.59 38.81-0.36Q39.05-0.13 39.38-0.13L39.38-0.13Q39.39-0.13 39.46-0.13Q39.53-0.13 39.53-0.13L39.53-0.13L39.53 0L38.54 0ZM53.70-8.75L55.23-8.75L55.23 0L53.70 0L53.70-8.75ZM55.19-0.49L58.54-0.49L58.75 0L55.19 0L55.19-0.49ZM55.19-4.55L58.06-4.55L58.06-4.08L55.19-4.08L55.19-4.55ZM55.19-8.75L58.65-8.75L58.65-8.26L55.19-8.26L55.19-8.75ZM59.29-2.38L59.41-2.38L58.79 0L56.45 0L56.90-0.49Q57.54-0.49 58-0.72Q58.46-0.95 58.78-1.38Q59.09-1.81 59.29-2.38L59.29-2.38ZM57.03-4.10L58.06-4.10L58.06-3.03L57.94-3.03L57.94-3.16Q57.94-3.55 57.68-3.81Q57.41-4.08 57.03-4.08L57.03-4.08L57.03-4.10ZM57.94-5.60L58.06-5.60L58.06-4.53L57.03-4.53L57.03-4.55Q57.41-4.56 57.68-4.83Q57.94-5.09 57.94-5.48L57.94-5.48L57.94-5.60ZM57.43-8.30L58.65-8.30L58.65-7L58.53-7L58.53-7.18Q58.53-7.65 58.23-7.96Q57.93-8.26 57.43-8.28L57.43-8.28L57.43-8.30ZM58.65-8.97L58.65-8.97L58.65-8.61L57.13-8.75Q57.40-8.75 57.71-8.79Q58.01-8.83 58.28-8.88Q58.54-8.93 58.65-8.97ZM53.70-0.91L53.74-0.91L53.74 0L52.74 0L52.74-0.13Q52.74-0.13 52.82-0.13Q52.90-0.13 52.90-0.13L52.90-0.13Q53.23-0.13 53.46-0.36Q53.69-0.59 53.70-0.91L53.70-0.91ZM53.74-8.75L53.74-7.84L53.70-7.84Q53.69-8.16 53.46-8.39Q53.23-8.63 52.90-8.63L52.90-8.63Q52.90-8.63 52.82-8.63Q52.74-8.63 52.74-8.63L52.74-8.63L52.74-8.75L53.74-8.75ZM63.54-7.46L63.40-8.94L71.14-1.29L71.28 0.18L63.54-7.46ZM63.41-0.89L63.45-0.89L63.45 0L62.41 0L62.41-0.13Q62.41-0.13 62.52-0.13Q62.64-0.13 62.65-0.13L62.65-0.13Q62.96-0.13 63.19-0.35Q63.41-0.58 63.41-0.89L63.41-0.89ZM64.76-0.89L64.80-0.89Q64.80-0.58 65.03-0.35Q65.25-0.13 65.56-0.13L65.56-0.13Q65.58-0.13 65.69-0.13Q65.80-0.13 65.80-0.13L65.80-0.13L65.80 0L64.76 0L64.76-0.89ZM63.27-8.94L63.40-8.94L64.79-7.43L64.80 0L63.41 0L63.41-7.38Q63.41-8.05 63.34-8.49Q63.27-8.94 63.27-8.94L63.27-8.94ZM69.89-8.75L71.25-8.75L71.25-1.43Q71.25-0.98 71.29-0.61Q71.33-0.25 71.36-0.04Q71.39 0.18 71.39 0.18L71.39 0.18L71.28 0.18L69.89-1.39L69.89-8.75ZM71.21-8.75L72.25-8.75L72.25-8.63Q72.25-8.63 72.14-8.63Q72.03-8.63 72.03-8.63L72.03-8.63Q71.71-8.63 71.49-8.41Q71.26-8.19 71.25-7.86L71.25-7.86L71.21-7.86L71.21-8.75ZM68.88-8.63L68.88-8.75L69.91-8.75L69.91-7.86L69.89-7.86Q69.88-8.19 69.66-8.41Q69.44-8.63 69.11-8.63L69.11-8.63Q69.11-8.63 69-8.63Q68.89-8.63 68.88-8.63L68.88-8.63ZM78.29-8.93L78.29-8.93Q78.53-8.93 78.85-8.90Q79.17-8.88 79.51-8.83Q79.84-8.79 80.10-8.74Q80.36-8.70 80.46-8.65L80.46-8.65L80.36-7.06L80.24-7.06Q80.24-7.70 79.78-8.08Q79.33-8.45 78.60-8.45L78.60-8.45Q77.88-8.45 77.44-8.08Q77.01-7.70 77-7.16L77-7.16Q76.97-6.85 77.18-6.56Q77.39-6.26 77.74-6.01L77.74-6.01L80.15-4.23Q80.66-3.89 80.90-3.41Q81.14-2.93 81.11-2.33L81.11-2.33Q81.08-1.18 80.28-0.50Q79.49 0.18 78.13 0.18L78.13 0.18Q77.66 0.18 77.18 0.09Q76.70 0.01 76.30-0.16Q75.90-0.33 75.66-0.56L75.66-0.56Q75.59-0.81 75.60-1.17Q75.61-1.53 75.70-1.91Q75.79-2.29 75.91-2.55L75.91-2.55L76.03-2.55Q75.97-1.91 76.24-1.39Q76.50-0.88 77.01-0.58Q77.51-0.29 78.20-0.30L78.20-0.30Q78.97-0.33 79.44-0.74Q79.91-1.15 79.91-1.80L79.91-1.80Q79.91-2.18 79.71-2.48Q79.51-2.79 79.09-3.04L79.09-3.04L76.83-4.75Q76.25-5.13 76.01-5.66Q75.76-6.19 75.80-6.76L75.80-6.76Q75.84-7.36 76.14-7.86Q76.44-8.35 76.98-8.64Q77.53-8.93 78.29-8.93ZM79.16-8.80L80.47-8.80L80.46-8.54L79.16-8.54L79.16-8.80ZM94.55-0.76L98.95-8.93L99.05-7.74L95.52-1.13Q95.52-1.13 95.41-0.91Q95.30-0.69 95.19-0.38Q95.08-0.06 95.06 0.23L95.06 0.23L94.94 0.23L94.55-0.76ZM90.46-0.91L90.74-0.91L90.74 0L89.35 0L89.35-0.13Q89.36-0.13 89.46-0.13Q89.55-0.13 89.55-0.13L89.55-0.13Q89.89-0.13 90.15-0.33Q90.41-0.54 90.46-0.91L90.46-0.91ZM91.14-0.71L91.22-0.71Q91.22-0.70 91.22-0.69Q91.22-0.68 91.22-0.65L91.22-0.65Q91.22-0.45 91.37-0.28Q91.51-0.11 91.71-0.11L91.71-0.11L91.90-0.11L91.90 0L91.14 0L91.14-0.71ZM90.35 0L91.46-8.93L91.59-8.93L91.96-7.84L91.15 0L90.35 0ZM91.29-6.49L91.59-8.93L95.51-1.85L94.94 0.23L91.29-6.49ZM98.95-8.93L99.06-8.93L100.21 0L98.55 0L97.90-6.35L98.95-8.93ZM99.83 0L99.83-0.91L100.10-0.91Q100.16-0.54 100.42-0.33Q100.67-0.13 101.01-0.13L101.01-0.13Q101.01-0.13 101.11-0.13Q101.20-0.13 101.21-0.13L101.21-0.13L101.21 0L99.83 0ZM98.47-0.71L98.47-0.71L98.56-0.71L98.56 0L97.80 0L97.80-0.11L97.99-0.11Q98.20-0.11 98.34-0.28Q98.47-0.45 98.47-0.65L98.47-0.65Q98.47-0.68 98.47-0.69Q98.47-0.70 98.47-0.71ZM107.30-6.98L107.89-8.97L111.84-0.08L109.99-0.08L107.30-6.98ZM104.38-0.91L105.20-0.91Q105.10-0.66 105.16-0.49Q105.22-0.31 105.38-0.22Q105.53-0.13 105.67-0.13L105.67-0.13L105.79-0.13L105.79 0L103.16 0L103.16-0.13Q103.16-0.13 103.22-0.13Q103.28-0.13 103.28-0.13L103.28-0.13Q103.56-0.13 103.87-0.31Q104.17-0.49 104.38-0.91L104.38-0.91ZM107.78-8.97L107.89-8.97L107.95-7.66L104.84-0.04L103.99-0.04L107.21-7.45Q107.24-7.50 107.32-7.69Q107.40-7.89 107.51-8.14Q107.61-8.39 107.69-8.62Q107.76-8.85 107.78-8.97L107.78-8.97ZM105.59-3.13L109.35-3.13L109.35-2.65L105.59-2.65L105.59-3.13ZM109.66-0.91L109.66-0.91L111.46-0.91Q111.66-0.49 111.97-0.31Q112.28-0.13 112.56-0.13L112.56-0.13Q112.56-0.13 112.61-0.13Q112.66-0.13 112.66-0.13L112.66-0.13L112.66 0L109.08 0L109.08-0.13L109.19-0.13Q109.42-0.13 109.61-0.33Q109.80-0.54 109.66-0.91ZM117.58-8.75L117.58-8.75L119.24-8.75Q119.80-8.75 120.31-8.61Q120.81-8.47 121.20-8.19Q121.59-7.90 121.81-7.46Q122.03-7.01 122.03-6.40L122.03-6.40Q122.03-5.85 121.79-5.31Q121.55-4.78 121.09-4.42Q120.63-4.06 119.95-4.01L119.95-4.01Q120.29-3.90 120.59-3.59Q120.90-3.29 121.10-2.99L121.10-2.99Q121.11-2.98 121.26-2.76Q121.40-2.54 121.61-2.23Q121.83-1.91 122.06-1.60Q122.29-1.29 122.46-1.07L122.46-1.07Q122.74-0.75 122.97-0.54Q123.20-0.34 123.46-0.23Q123.72-0.13 124.06-0.13L124.06-0.13L124.06 0L123.03 0Q122.38 0 121.87-0.14Q121.36-0.28 120.99-0.55Q120.61-0.83 120.34-1.24L120.34-1.24Q120.26-1.35 120.13-1.58Q119.99-1.81 119.83-2.10Q119.66-2.39 119.51-2.66Q119.35-2.93 119.24-3.14Q119.14-3.35 119.10-3.44L119.10-3.44Q118.90-3.80 118.66-4.03Q118.42-4.25 118.15-4.28L118.15-4.28L118.15-4.40Q118.17-4.40 118.31-4.39Q118.45-4.39 118.63-4.40L118.63-4.40Q118.96-4.41 119.31-4.53Q119.65-4.64 119.92-4.94Q120.20-5.25 120.33-5.80L120.33-5.80Q120.35-5.91 120.38-6.09Q120.40-6.26 120.39-6.45L120.39-6.45Q120.35-7.33 119.94-7.78Q119.53-8.22 118.89-8.25L118.89-8.25Q118.65-8.26 118.39-8.26Q118.13-8.25 117.93-8.25Q117.74-8.25 117.70-8.25L117.70-8.25Q117.70-8.26 117.67-8.39Q117.64-8.51 117.61-8.63Q117.58-8.75 117.58-8.75ZM116.21-8.75L117.74-8.75L117.74 0L116.21 0L116.21-8.75ZM116.21-0.91L116.25-0.91L116.25 0L115.25 0L115.25-0.13Q115.26-0.13 115.33-0.13Q115.40-0.13 115.41-0.13L115.41-0.13Q115.74-0.13 115.97-0.36Q116.20-0.59 116.21-0.91L116.21-0.91ZM116.25-8.75L116.25-7.84L116.21-7.84Q116.20-8.16 115.97-8.39Q115.74-8.63 115.41-8.63L115.41-8.63Q115.40-8.63 115.33-8.63Q115.26-8.63 115.25-8.63L115.25-8.63L115.25-8.75L116.25-8.75ZM117.70 0L117.70-0.91L117.74-0.91Q117.74-0.59 117.97-0.36Q118.21-0.13 118.54-0.13L118.54-0.13Q118.55-0.13 118.62-0.13Q118.69-0.13 118.69-0.13L118.69-0.13L118.69 0L117.70 0ZM129.19-4.20L130.35-5.19L133.71-0.81Q133.99-0.48 134.28-0.31Q134.57-0.14 134.96-0.13L134.96-0.13L134.96 0L134.10 0Q133.96 0 133.68-0.02Q133.39-0.04 133.03-0.12Q132.68-0.20 132.31-0.39Q131.95-0.58 131.68-0.93L131.68-0.93Q131.64-0.99 131.44-1.24Q131.25-1.50 130.96-1.87Q130.68-2.24 130.37-2.64Q130.06-3.05 129.79-3.40Q129.53-3.75 129.36-3.98Q129.19-4.20 129.19-4.20L129.19-4.20ZM132.63-8.66L133.64-8.66L129.89-4.25L129.19-4.20L132.63-8.66ZM134.46-8.75L134.51-8.75L134.51-8.64L134.46-8.64Q134.05-8.64 133.69-8.47Q133.34-8.31 133.09-8.03L133.09-8.03L132.15-8.05Q132.30-8.26 132.20-8.45Q132.10-8.64 131.85-8.64L131.85-8.64L131.72-8.64L131.72-8.75L134.46-8.75ZM127.26-8.75L128.79-8.75L128.79 0L127.26 0L127.26-8.75ZM127.26-0.91L127.30-0.91L127.30 0L126.30 0L126.30-0.13Q126.31-0.13 126.38-0.13Q126.45-0.13 126.46-0.13L126.46-0.13Q126.79-0.13 127.02-0.36Q127.25-0.59 127.26-0.91L127.26-0.91ZM127.30-8.75L127.30-7.84L127.26-7.84Q127.25-8.16 127.02-8.39Q126.79-8.63 126.46-8.63L126.46-8.63Q126.45-8.63 126.38-8.63Q126.31-8.63 126.30-8.63L126.30-8.63L126.30-8.75L127.30-8.75ZM128.75 0L128.75-0.91L128.79-0.91Q128.80-0.59 129.03-0.36Q129.26-0.13 129.59-0.13L129.59-0.13Q129.59-0.13 129.66-0.13Q129.74-0.13 129.75-0.13L129.75-0.13L129.75 0L128.75 0ZM128.79-7.84L128.75-7.84L128.75-8.75L129.75-8.75L129.75-8.63Q129.74-8.63 129.66-8.63Q129.59-8.63 129.59-8.63L129.59-8.63Q129.26-8.63 129.03-8.39Q128.80-8.16 128.79-7.84L128.79-7.84ZM138.56-8.75L140.09-8.75L140.09 0L138.56 0L138.56-8.75ZM140.05-0.49L143.40-0.49L143.61 0L140.05 0L140.05-0.49ZM140.05-4.55L142.93-4.55L142.93-4.08L140.05-4.08L140.05-4.55ZM140.05-8.75L143.51-8.75L143.51-8.26L140.05-8.26L140.05-8.75ZM144.15-2.38L144.28-2.38L143.65 0L141.31 0L141.76-0.49Q142.40-0.49 142.86-0.72Q143.32-0.95 143.64-1.38Q143.95-1.81 144.15-2.38L144.15-2.38ZM141.89-4.10L142.93-4.10L142.93-3.03L142.80-3.03L142.80-3.16Q142.80-3.55 142.54-3.81Q142.28-4.08 141.89-4.08L141.89-4.08L141.89-4.10ZM142.80-5.60L142.93-5.60L142.93-4.53L141.89-4.53L141.89-4.55Q142.28-4.56 142.54-4.83Q142.80-5.09 142.80-5.48L142.80-5.48L142.80-5.60ZM142.29-8.30L143.51-8.30L143.51-7L143.39-7L143.39-7.18Q143.39-7.65 143.09-7.96Q142.79-8.26 142.29-8.28L142.29-8.28L142.29-8.30ZM143.51-8.97L143.51-8.97L143.51-8.61L141.99-8.75Q142.26-8.75 142.57-8.79Q142.88-8.83 143.14-8.88Q143.40-8.93 143.51-8.97ZM138.56-0.91L138.60-0.91L138.60 0L137.60 0L137.60-0.13Q137.60-0.13 137.68-0.13Q137.76-0.13 137.76-0.13L137.76-0.13Q138.09-0.13 138.32-0.36Q138.55-0.59 138.56-0.91L138.56-0.91ZM138.60-8.75L138.60-7.84L138.56-7.84Q138.55-8.16 138.32-8.39Q138.09-8.63 137.76-8.63L137.76-8.63Q137.76-8.63 137.68-8.63Q137.60-8.63 137.60-8.63L137.60-8.63L137.60-8.75L138.60-8.75ZM150.22-8.71L151.75-8.71L151.75 0L150.22 0L150.22-8.71ZM147.11-8.76L154.85-8.76L154.85-8.29L147.11-8.29L147.11-8.76ZM153.64-8.33L154.85-8.33L154.85-7.01L154.72-7.03L154.72-7.19Q154.72-7.68 154.42-7.98Q154.13-8.28 153.64-8.29L153.64-8.29L153.64-8.33ZM154.85-8.99L154.85-8.99L154.85-8.63L153.32-8.76Q153.60-8.76 153.91-8.80Q154.21-8.84 154.47-8.89Q154.74-8.94 154.85-8.99ZM150.22-0.91L150.26-0.91L150.26 0L149.26 0L149.26-0.13Q149.26-0.13 149.34-0.13Q149.42-0.13 149.42-0.13L149.42-0.13Q149.75-0.13 149.98-0.36Q150.21-0.59 150.22-0.91L150.22-0.91ZM151.71 0L151.71-0.91L151.75-0.91Q151.76-0.59 151.99-0.36Q152.22-0.13 152.55-0.13L152.55-0.13Q152.55-0.13 152.63-0.13Q152.71-0.13 152.71-0.13L152.71-0.13L152.71 0L151.71 0ZM147.11-8.33L148.32-8.33L148.32-8.29Q147.84-8.28 147.54-7.98Q147.24-7.68 147.24-7.19L147.24-7.19L147.24-7.03L147.11-7.01L147.11-8.33ZM147.11-8.63L147.11-8.99Q147.24-8.94 147.49-8.89Q147.75-8.84 148.06-8.80Q148.38-8.76 148.64-8.76L148.64-8.76L147.11-8.63Z" fill="#5fcfae"/>
</g>
</svg>